# xmcd
#
# Track frame offsets:
#  150
#  13891
#  37096
#  53023
#  73615
#  88717
#  110334
#  125969
#  140587
#  160241
#  177246
#  221466
#  245633
#  262641
#  282051
#  305490
#  310576
#
# Disc length: 4327 seconds
#
# Revision: 0
# Processed by: cddbd v1.5.1PL0 Copyright (c) Steve Scherf et al.
# Submitted via: Collectorz.com Music Collector 6.9
#
DISCID=f210e511
DTITLE=todd snider - Live At The Handlebar, Greenville, Sc - 10/18/01
DYEAR=2001
DGENRE=
TTITLE0=Can't Complain
TTITLE1=Horseshoe Lake
TTITLE2=45 Miles
TTITLE3=Long Year
TTITLE4=Mising You
TTITLE5=Ballad Of The Devil's Backbone Tavern
TTITLE6=Beer Run
TTITLE7=Statistician's Blues
TTITLE8=Waco Moon
TTITLE9=Sideshow Blues
TTITLE10=Moondawg's Tavern
TTITLE11=Talking Seattle Grunge Rock Blues
TTITLE12=Illegal Smile
TTITLE13=Alright Guy
TTITLE14=Once He Finds Us
TTITLE15=Roll Another Number (For The Road)
TTITLE16=The Needle And The Damage Done
EXTD=
EXTT0=
EXTT1=
EXTT2=
EXTT3=
EXTT4=
EXTT5=
EXTT6=
EXTT7=
EXTT8=
EXTT9=
EXTT10=
EXTT11=
EXTT12=
EXTT13=
EXTT14=
EXTT15=
EXTT16=
PLAYORDER=
